<?xml version="1.0" encoding="utf-8"?>
<!-- Generator: Adobe Illustrator 22.1.0, SVG Export Plug-In . SVG Version: 6.00 Build 0)  -->
<svg version="1.1" id="Lager_1" xmlns="http://www.w3.org/2000/svg"  x="0px" y="0px"
	 viewBox="25 20 440 228" style="enable-background:new 25 20 440 228;" xml:space="preserve">
<style type="text/css">
	.st0{fill:#05d48e;}
</style>
<g>
	<g>
		<path class="st0" d="M101.9,20.8L51.1,172h77.1l3.6,10.6H47.6l-21.8,64.9h12.5l17.7-52.9h79.7l17.7,52.9H166L102.2,57.2l6-17.8
			L178,247.5h12.5L114.4,20.8H101.9z M124.2,160H67.7l28.3-84.2L124.2,160z"/>
	</g>
	<g>
		<polygon class="st0" points="414.2,20.8 401.7,20.8 355.3,158.8 330.8,85.4 318.3,85.4 349.1,177.4 344.1,192.4 308.2,85.4 
			295.7,85.4 337.8,211.1 331.8,228.8 283.7,85.4 271.2,85.4 235.3,192.5 177.6,20.8 165.1,20.8 229,211.1 223,228.8 153.2,20.8 
			140.7,20.8 216.8,247.5 216.8,247.5 216.8,247.5 229.3,247.5 277.5,104 283.4,121.7 241.2,247.5 253.7,247.5 289.7,140.3 
			325.6,247.5 338.1,247.5 338.1,247.5 338.1,247.5 		"/>
	</g>
	<g>
		<polygon class="st0" points="426.1,20.8 350,247.5 362.5,247.5 438.6,20.8 		"/>
	</g>
	<g>
		<polygon class="st0" points="450.5,20.8 374.4,247.5 386.9,247.5 463,20.8 		"/>
	</g>
</g>
</svg>
